<?xml version="1.0" encoding="utf-8"?>
<!-- Generator: Adobe Illustrator 18.1.1, SVG Export Plug-In . SVG Version: 6.00 Build 0)  -->
<svg version="1.1" id="US_UK_Download_on_the" xmlns="http://www.w3.org/2000/svg" xmlns:xlink="http://www.w3.org/1999/xlink"
	 x="0px" y="0px" viewBox="-432 481 135 40" enable-background="new -432 481 135 40" xml:space="preserve">
<g>
	<g>
		<path d="M-297.4,515c0,3.5-2.6,5.6-6,5.6h-121.9c-3.5,0-6.3-2.8-6.3-6.3v-26.6c0-3.5,2.8-6.3,6.3-6.3h121.9c3.5,0,6,2.8,6,6.3V515
			L-297.4,515z"/>
		<path fill="#FFFFFF" d="M-303.4,521h-121.9c-3.7,0-6.7-3-6.7-6.7v-26.6c0-3.7,3-6.7,6.7-6.7h121.9c3.6,0,6.4,2.9,6.4,6.7V515
			C-297,518.6-299.6,521-303.4,521z M-425.3,481.8c-3.3,0-5.9,2.6-5.9,5.9v26.6c0,3.3,2.6,5.9,5.9,5.9h121.9c3.4,0,5.6-2.1,5.6-5.2
			v-27.3c0-3.3-2.5-5.9-5.6-5.9L-425.3,481.8z"/>
	</g>
	<g>
		<g>
			<g>
				<path fill="#FFFFFF" d="M-343.4,509.7l-0.9,0.8c-0.2,0.1-0.4,0.2-0.6,0.3c-0.6,0.3-1.2,0.3-1.7,0.3c-0.6,0-1.5,0-2.4-0.7
					c-1.3-0.9-1.8-2.4-1.8-3.8c0-2.8,2.3-4.2,4.1-4.2c0.6,0,1.3,0.2,1.9,0.5c0.9,0.6,1.1,1.4,1.3,1.8l-4.2,1.7l-1.4,0.1
					c0.4,2.3,2,3.6,3.7,3.6C-344.7,510.2-344.1,510-343.4,509.7C-343.5,509.7-343.4,509.6-343.4,509.7z M-346,505.2
					c0.3-0.1,0.5-0.2,0.5-0.5c0-0.7-0.8-1.5-1.8-1.5c-0.7,0-2.1,0.6-2.1,2.5c0,0.3,0,0.6,0.1,0.9L-346,505.2z"/>
				<path fill="#FFFFFF" d="M-352.3,509.6c0,0.7,0.1,0.8,0.7,0.9c0.3,0,0.6,0.1,0.9,0.1l-0.7,0.4h-3.2c0.4-0.5,0.5-0.6,0.5-1v-0.4
					v-10.7h-1.4l1.3-0.6h2.6c-0.6,0.3-0.7,0.5-0.8,1.1L-352.3,509.6z"/>
				<path fill="#FFFFFF" d="M-357.2,503.4c0.4,0.3,1.3,1.1,1.3,2.4s-0.8,2-1.5,2.6c-0.2,0.2-0.5,0.5-0.5,0.9s0.3,0.6,0.5,0.8
					l0.6,0.5c0.8,0.7,1.5,1.3,1.5,2.5c0,1.7-1.6,3.4-4.7,3.4c-2.6,0-3.9-1.2-3.9-2.6c0-0.6,0.3-1.6,1.4-2.2c1.1-0.7,2.6-0.8,3.4-0.8
					c-0.3-0.3-0.5-0.7-0.5-1.2c0-0.3,0.1-0.5,0.2-0.7c-0.2,0-0.4,0-0.6,0c-1.9,0-3-1.4-3-2.8c0-0.8,0.4-1.7,1.2-2.4
					c1-0.8,2.2-1,3.2-1h3.7l-1.2,0.7L-357.2,503.4L-357.2,503.4z M-358.5,511.4c-0.1,0-0.2,0-0.4,0c-0.2,0-1.1,0-1.9,0.3
					c-0.4,0.1-1.5,0.6-1.5,1.9s1.2,2.2,3.2,2.2c1.7,0,2.6-0.8,2.6-1.9C-356.5,512.9-357.1,512.4-358.5,511.4z M-358,508
					c0.4-0.4,0.5-1,0.5-1.3c0-1.3-0.8-3.3-2.3-3.3c-0.5,0-1,0.2-1.3,0.6s-0.4,0.9-0.4,1.3c0,1.2,0.7,3.2,2.2,3.2
					C-358.7,508.5-358.2,508.3-358,508z"/>
				<path fill="#FFFFFF" d="M-368.3,511.1c-2.9,0-4.4-2.2-4.4-4.2c0-2.4,1.9-4.4,4.7-4.4c2.6,0,4.3,2.1,4.3,4.2
					C-363.8,508.9-365.4,511.1-368.3,511.1z M-366.1,509.7c0.4-0.6,0.5-1.3,0.5-2c0-1.6-0.8-4.6-3-4.6c-0.6,0-1.2,0.2-1.6,0.6
					c-0.7,0.6-0.8,1.4-0.8,2.2c0,1.8,0.9,4.7,3.1,4.7C-367.2,510.6-366.5,510.3-366.1,509.7z"/>
				<path fill="#FFFFFF" d="M-377.9,511.1c-2.9,0-4.4-2.2-4.4-4.2c0-2.4,1.9-4.4,4.7-4.4c2.6,0,4.3,2.1,4.3,4.2
					C-373.3,508.9-375,511.1-377.9,511.1z M-375.7,509.7c0.4-0.6,0.5-1.3,0.5-2c0-1.6-0.8-4.6-3-4.6c-0.6,0-1.2,0.2-1.6,0.6
					c-0.7,0.6-0.8,1.4-0.8,2.2c0,1.8,0.9,4.7,3.1,4.7C-376.8,510.6-376.1,510.3-375.7,509.7z"/>
				<path fill="#FFFFFF" d="M-383.4,510.5l-2.4,0.6c-1,0.2-1.9,0.3-2.8,0.3c-4.6,0-6.4-3.4-6.4-6.1c0-3.3,2.5-6.3,6.8-6.3
					c0.9,0,1.8,0.1,2.6,0.4c1.3,0.4,1.9,0.8,2.2,1l-1.4,1.3l-0.6,0.1l0.4-0.7c-0.6-0.6-1.6-1.6-3.6-1.6c-2.7,0-4.7,2-4.7,5
					c0,3.2,2.3,6.1,6,6.1c1.1,0,1.6-0.2,2.1-0.4v-2.7l-2.5,0.1l1.3-0.7h3.6l-0.4,0.4c-0.1,0.1-0.1,0.1-0.2,0.3c0,0.2,0,0.6,0,0.8
					V510.5L-383.4,510.5z"/>
			</g>
			<g>
				<path fill="#FFFFFF" d="M-338.3,509.8v4.6h-0.9v-11.6h0.9v1.3c0.6-0.9,1.7-1.5,2.9-1.5c2.3,0,3.8,1.7,3.8,4.4
					c0,2.7-1.5,4.4-3.8,4.4C-336.5,511.3-337.6,510.7-338.3,509.8z M-332.5,506.9c0-2-1.1-3.6-2.9-3.6c-1.2,0-2.3,0.9-2.8,1.7v3.7
					c0.5,0.8,1.6,1.8,2.8,1.8C-333.6,510.5-332.5,509-332.5,506.9z"/>
				<path fill="#FFFFFF" d="M-330.3,511.1v-11.6h0.9v11.6H-330.3L-330.3,511.1z"/>
				<path fill="#FFFFFF" d="M-319.2,513.6c0.2,0.1,0.5,0.1,0.7,0.1c0.6,0,0.9-0.2,1.3-1l0.7-1.5l-3.6-8.5h1l3.1,7.4l3-7.4h1
					l-4.4,10.3c-0.5,1.1-1.2,1.6-2.1,1.6c-0.3,0-0.7-0.1-0.9-0.1L-319.2,513.6z"/>
				<path fill="#FFFFFF" d="M-321.9,511.1c-0.1-0.3-0.1-0.5-0.1-0.8c0-0.2,0-0.4,0-0.7c-0.3,0.5-0.8,0.8-1.3,1.1
					c-0.6,0.3-1.1,0.5-1.8,0.5c-0.9,0-1.6-0.2-2.1-0.7c-0.5-0.4-0.7-1-0.7-1.8s0.4-1.4,1.1-1.8c0.7-0.5,1.6-0.7,2.8-0.7h2.1v-1
					c0-0.6-0.2-1.1-0.6-1.4s-1-0.5-1.7-0.5s-1.2,0.2-1.7,0.5c-0.4,0.3-0.6,0.7-0.6,1.2h-0.9l0,0c0-0.6,0.3-1.2,0.9-1.7
					s1.4-0.7,2.4-0.7s1.8,0.2,2.4,0.7s0.9,1.2,0.9,2v4.2c0,0.3,0,0.6,0.1,0.9c0,0.3,0.1,0.6,0.2,0.8L-321.9,511.1L-321.9,511.1
					L-321.9,511.1z M-325.1,510.5c0.8,0,1.3-0.2,1.9-0.5s0.9-0.8,1.1-1.3V507h-2.1c-0.8,0-1.5,0.2-2,0.5c-0.5,0.4-0.8,0.8-0.8,1.3
					s0.2,0.9,0.5,1.2C-326.2,510.3-325.7,510.5-325.1,510.5z"/>
			</g>
		</g>
		<g>
			<polygon fill="none" points="-409.9,506.4 -407,503.5 -407,503.5 -409.9,506.4 -419.2,497.1 -419.2,497.1 -409.9,506.4 
				-419.2,515.8 -419.2,515.8 -409.9,506.4 -407,509.4 -407,509.4 			"/>
			
				<linearGradient id="SVGID_1_" gradientUnits="userSpaceOnUse" x1="-201.5291" y1="593.1282" x2="-203.1883" y2="594.1666" gradientTransform="matrix(5.2378 5.2378 5.2378 -5.2378 -2463.0273 4667.9409)">
				<stop  offset="0" style="stop-color:#D6FFA1"/>
				<stop  offset="0.3264" style="stop-color:#93E2A7"/>
				<stop  offset="1" style="stop-color:#00A3B5"/>
			</linearGradient>
			<path fill="url(#SVGID_1_)" d="M-407,503.5l-11.4-6.2c-0.3-0.2-0.6-0.2-0.9-0.1l9.3,9.3L-407,503.5z"/>
			
				<linearGradient id="SVGID_2_" gradientUnits="userSpaceOnUse" x1="-202.4913" y1="594.0172" x2="-200.3398" y2="593.4548" gradientTransform="matrix(5.2378 5.2378 5.2378 -5.2378 -2463.0273 4667.9409)">
				<stop  offset="0" style="stop-color:#FF177B"/>
				<stop  offset="0.6721" style="stop-color:#FFA976"/>
				<stop  offset="1" style="stop-color:#FFEC73"/>
			</linearGradient>
			<path fill="url(#SVGID_2_)" d="M-407,509.4l3.9-2.1c0.8-0.4,0.8-1.1,0-1.6l-3.9-2.1l-2.9,2.9L-407,509.4z"/>
			
				<linearGradient id="SVGID_3_" gradientUnits="userSpaceOnUse" x1="-201.2904" y1="592.3447" x2="-203.6231" y2="593.7171" gradientTransform="matrix(5.2378 5.2378 5.2378 -5.2378 -2463.0273 4667.9409)">
				<stop  offset="0" style="stop-color:#63FFD4"/>
				<stop  offset="0.4854" style="stop-color:#32A0BA"/>
				<stop  offset="0.8349" style="stop-color:#1262A9"/>
				<stop  offset="1" style="stop-color:#064AA2"/>
			</linearGradient>
			<path fill="url(#SVGID_3_)" d="M-419.2,497.1c-0.3,0.1-0.6,0.5-0.6,1v16.7c0,0.5,0.2,0.9,0.6,1l9.3-9.3L-419.2,497.1z"/>
			
				<linearGradient id="SVGID_4_" gradientUnits="userSpaceOnUse" x1="-200.4369" y1="593.4318" x2="-201.8731" y2="591.5396" gradientTransform="matrix(5.2378 5.2378 5.2378 -5.2378 -2463.0273 4667.9409)">
				<stop  offset="0" style="stop-color:#FF4521"/>
				<stop  offset="0.3411" style="stop-color:#D43E65"/>
				<stop  offset="0.7935" style="stop-color:#9F36B9"/>
				<stop  offset="1" style="stop-color:#8A33DB"/>
			</linearGradient>
			<path fill="url(#SVGID_4_)" d="M-419.2,515.8c0.2,0.1,0.5,0,0.9-0.1l11.4-6.3l-2.9-2.9L-419.2,515.8z"/>
		</g>
		<g>
			<g>
				<path fill="#FFFFFF" d="M-395.1,489.9c0-1.8,1.3-2.9,3-2.9c1.1,0,1.8,0.5,2.3,1.2l-0.8,0.5c-0.3-0.4-0.8-0.8-1.5-0.8
					c-1.1,0-2,0.9-2,2.1s0.8,2.1,2,2.1c0.6,0,1.1-0.3,1.3-0.5v-0.9h-1.7v-0.9h2.7v2.1c-0.6,0.6-1.4,1-2.3,1
					C-393.7,492.9-395.1,491.7-395.1,489.9z"/>
				<path fill="#FFFFFF" d="M-388.5,492.8v-5.7h3.9v0.9h-2.9v1.5h2.8v0.9h-2.8v1.6h2.9v0.9L-388.5,492.8L-388.5,492.8z"/>
				<path fill="#FFFFFF" d="M-381.8,492.8V488h-1.7v-0.9h4.4v0.9h-1.7v4.8H-381.8z"/>
				<path fill="#FFFFFF" d="M-375.7,492.8v-5.7h1v5.7H-375.7z"/>
				<path fill="#FFFFFF" d="M-371.9,492.8V488h-1.7v-0.9h4.4v0.9h-1.7v4.8H-371.9z"/>
				<path fill="#FFFFFF" d="M-366,489.9c0-1.7,1.2-2.9,2.9-2.9c1.7,0,2.9,1.2,2.9,2.9s-1.2,2.9-2.9,2.9
					C-364.7,492.9-366,491.6-366,489.9z M-361.2,489.9c0-1.2-0.7-2.1-1.9-2.1c-1.2,0-1.9,0.9-1.9,2.1s0.7,2.1,1.9,2.1
					C-361.9,492-361.2,491.1-361.2,489.9z"/>
				<path fill="#FFFFFF" d="M-355,492.8l-3-4.1v4.1h-1v-5.7h1l2.9,3.9v-3.9h1v5.7H-355z"/>
			</g>
		</g>
	</g>
</g>
</svg>
